<svg width="17" height="17" viewBox="0 0 17 17" fill="none" xmlns="http://www.w3.org/2000/svg">
<path d="M13.4528 11.2415C13.8639 11.6566 13.8639 12.3289 13.4528 12.744C13.2489 12.9515 12.9792 13.0544 12.7095 13.0544C12.4399 13.0544 12.1708 12.9506 11.9656 12.7431L8.5 9.246L5.03471 12.7423C4.82917 12.9515 4.55982 13.0544 4.29048 13.0544C4.02114 13.0544 3.75212 12.9515 3.54641 12.7423C3.13533 12.3273 3.13533 11.6549 3.54641 11.2399L7.01269 7.74024L3.54641 4.24229C3.13533 3.82726 3.13533 3.15489 3.54641 2.73985C3.9575 2.32481 4.62346 2.32481 5.03455 2.73985L8.5 6.24112L11.9663 2.74151C12.3774 2.32647 13.0433 2.32647 13.4544 2.74151C13.8655 3.15655 13.8655 3.82892 13.4544 4.24395L9.98813 7.74356L13.4528 11.2415Z" fill="#828282"/>
</svg>
