<svg width="33" height="34" viewBox="0 0 33 34" fill="none" xmlns="http://www.w3.org/2000/svg">
<path d="M31.9546 22.9367C32.1737 22.3656 31.9878 21.7215 31.5362 21.3031L28.6608 18.6867C28.7339 18.1355 28.7737 17.5711 28.7737 17C28.7737 16.4289 28.7339 15.8645 28.6608 15.3133L31.5362 12.6969C31.9878 12.2785 32.1737 11.6344 31.9546 11.0633C31.6624 10.273 31.3104 9.50937 30.912 8.78555L30.5999 8.24766C30.1616 7.51719 29.6702 6.82656 29.1323 6.16914C28.7339 5.69766 28.0897 5.53164 27.5053 5.71758L23.8065 6.89961C22.9167 6.21562 21.8741 5.64453 20.8846 5.20625L20.0546 1.41445C19.9217 0.816796 19.4569 0.391797 18.846 0.232422C17.9296 0.0796875 16.9866 0 15.9639 0C15.0608 0 14.1178 0.0796875 13.2014 0.232422C12.5905 0.391797 12.1257 0.816796 11.9928 1.41445L11.1628 5.20625C10.1135 5.64453 9.13073 6.21562 8.24089 6.89961L4.54472 5.71758C3.95768 5.53164 3.31022 5.69766 2.9171 6.16914C2.37854 6.82656 1.88714 7.51719 1.44886 8.24766L1.13808 8.78555C0.73499 9.50937 0.384365 10.273 0.090185 11.0633C-0.124971 11.6344 0.0563178 12.2785 0.511865 12.6969L3.3846 15.3133C3.31155 15.8645 3.2737 16.4289 3.2737 17C3.2737 17.5711 3.31155 18.1355 3.3846 18.6867L0.511865 21.3031C0.0563178 21.7215 -0.124971 22.359 0.090185 22.9367C0.384365 23.727 0.735654 24.4906 1.13808 25.2145L1.44819 25.7523C1.88714 26.4828 2.37854 27.1734 2.9171 27.8275C3.31022 28.3023 3.95768 28.467 4.54472 28.2798L8.24089 27.1004C9.13073 27.787 10.1135 28.3581 11.1628 28.7918L11.9928 32.5836C12.1257 33.1865 12.5905 33.6653 13.2014 33.7669C14.1178 33.9202 15.0608 34 16.0237 34C16.9866 34 17.9296 33.9202 18.846 33.7669C19.4569 33.6653 19.9217 33.1865 20.0546 32.5836L20.8846 28.7918C21.8741 28.3581 22.9167 27.787 23.8065 27.1004L27.5053 28.2798C28.0897 28.467 28.7339 28.3023 29.1323 27.8275C29.6702 27.1734 30.1616 26.4828 30.5999 25.7523L30.912 25.2145C31.3104 24.4906 31.6624 23.727 31.9546 22.9367ZM16.0237 11.6875C18.9589 11.6875 21.3362 14.0648 21.3362 17.0598C21.3362 19.9352 18.9589 22.3723 16.0237 22.3723C13.0885 22.3723 10.7112 19.9352 10.7112 17.0598C10.7112 14.0648 13.0885 11.6875 16.0237 11.6875Z" fill="#D8DFFB"/>
</svg>
